<?xml version="1.0" standalone="no"?>
<!DOCTYPE svg PUBLIC "-//W3C//DTD SVG 20010904//EN"
 "http://www.w3.org/TR/2001/REC-SVG-20010904/DTD/svg10.dtd">
<svg version="1.0" xmlns="http://www.w3.org/2000/svg"
 width="512.000000pt" height="512.000000pt" viewBox="0 0 512.000000 512.000000"
 preserveAspectRatio="xMidYMid meet">

<defs>
  <linearGradient id="gradient" x1="0%" y1="0%" x2="100%" y2="100%">
    <stop offset="0%" style="stop-color: #e52e71; stop-opacity: 1" />
    <stop offset="50%" style="stop-color: #6610f2; stop-opacity: 1" />
    <stop offset="100%" style="stop-color: #009688; stop-opacity: 1" />
  </linearGradient>
</defs>

<g transform="translate(0.000000,512.000000) scale(0.100000,-0.100000)"
fill="url(#gradient)" stroke="none">
<path d="M2215 5110 c-434 -45 -847 -209 -1210 -483 -103 -78 -334 -309 -412
-412 -255 -338 -406 -694 -470 -1105 -25 -160 -24 -509 1 -670 60 -383 197
-724 415 -1027 84 -117 119 -136 166 -88 39 38 32 71 -33 160 -262 360 -400
-761 -419 1210 -24 607 207 1195 642 1630 592 592 1455 795 2245 529 713 -241
1259 -837 1436 -1569 26 -110 51 -277 55 -370 l3 -60 -495 -122 c-272 -67
-496 -122 -499 -123 -3 0 -2 33 2 73 27 263 -65 581 -233 807 -66 89 -201 220
-285 277 -606 412 -1425 199 -1757 -457 -42 -84 -89 -222 -108 -320 -20 -100
-17 -348 5 -450 49 -228 152 -423 310 -589 346 -361 846 -472 1317 -290 42 16
114 52 160 79 45 28 84 50 86 50 1 0 3 -213 3 -474 l0 -473 -51 -7 c-136 -18
-301 -96 -410 -195 l-56 -50 -99 -6 c-127 -9 -342 9 -508 41 -375 73 -744 256
-1029 511 -67 60 -111 69 -147 33 -34 -34 -26 -77 23 -123 67 -63 184 -155
277 -216 374 -250 770 -376 1246 -398 l144 -6 -7 -36 c-23 -106 7 -218 75
-284 265 -256 888 -15 962 372 5 30 10 96 10 148 l0 94 31 17 c17 9 74 46 127
80 337 222 610 527 803 895 l69 132 0 -311 0 -311 -57 -7 c-210 -24 -445 -182
-531 -355 -31 -63 -38 -87 -41 -154 -3 -71 0 -84 29 -143 36 -74 90 -121
178 -155 83 -33 257 -33 362 0 204 63 363 189 443 351 l32 65 3 872 3 873 -25 25
c-32 32 -70 32 -101 0 -25 -24 -25 -26 -25 -208 l0 -184 -72 -18 c-40 -9 -390
-95 -776 -191 -387 -96 -710 -174 -718 -174 -12 0 -14 45 -14 274 0 253 1 275
18 280 9 3 235 59 502 124 267 66 619 153 783 193 192 48 305 80 318 92 29 27
25 81 -8 107 -23 18 -35 20 -75 15 l-48 -7 0 44 c0 67 -36 292 -64 404 -81
318 -242 643 -443 894 -319 399 -757 681 -1249 806 -71 18 -177 40 -235 49
-125 19 -449 27 -574 15z m385 -1295 c551 -83 947 -590 890 -1140 -6 -54 -12
-100 -14 -103 -3 -2 -51 -15 -108 -28 -129 -30 -173 -49 -201 -88 -21 -29 -22
-43 -25 -251 l-3 -220 -72 -54 c-201 -151 -473 -226 -724 -201 -731 75 -1165
849 -844 1505 204 416 646 649 1101 580z m2270 -2204 l0 -438 -60 21 -60 21 0
402 0 402 43 11 c-41 11 73 18 85 20 4 0 7 -197 7 -438z m1365 -209 c88 -51 106 -124 56
-226 -123 -250 -551 -376 -695 -206 -36 43 -36 116 0 187 51 103 206 217 349
258 32 9 87 13 150 12 83 -2 107 -6 140 -25z m-1458 -380 c123 -64 114 -203
-21 -337 -110 -108 -256 -169 -406 -170 -82 0 -102 3 -144 25 -68 34 -91 68
-90 133 2 139 166 298 369 359 85 25 234 20 292 -10z"/>
<path d="M2291 3360 c-310 -84 -504 -399 -437 -710 48 -219 208 -389 432 -456
87 -26 238 -25 329 3 187 58 334 203 402 395 34 93 38 248 9 343 -58 195 -201
347 -386 411 -104 37 -246 42 -349 14z m264 -145 c176 -46 306 -190 336 -372
48 -292 -223 -562 -514 -514 -181 30 -326 161 -372 336 -85 328 222 635 550
550z"/>
</g>
</svg>
